<svg
            width="176.7955"
            height="44.351997"
            viewBox="0 0 46.777137 11.734798">
            <defs
              id="defs11" />
            <g
              id="g25"
              transform="matrix(0.98303617,0,0,0.98303617,-2.8559256,-5.4897283)">
              <g
                id="g23">
                <g
                  id="g21">
                  <g
                    id="g5">
                    <path
                      d="m 11.305462,15.572576 q -0.13335,0.0254 -0.3048,0.0381 -0.17145,0.0127 -0.3429,0.0127 -0.1778,0 -0.34925,-0.0127 -0.17145,-0.0127 -0.3175,-0.0381 v -4.65455 q 0,-0.33655 -0.12065,-0.50165 -0.1143,-0.1651 -0.4254499,-0.1651 h -0.76835 l -1.70815,5.3213 q -0.22225,0.0381 -0.47625,0.0508 -0.254,0.01905 -0.48895,0.01905 -0.38735,0 -0.5969,-0.13335 -0.2032,-0.1397 -0.34925,-0.60325 l -1.7653,-5.4991003 q 0.22225,-0.1016 0.4064,-0.14605 0.1905,-0.0508 0.3556,-0.0508 0.2794,0 0.45085,0.127 0.1778,0.12065 0.26035,0.4318 l 0.8509,2.7940003 q 0.1016,0.31115 0.19685,0.66675 0.09525,0.3556 0.17145,0.6731 0.0762,0.31115 0.12065,0.508 0.0254,0.1016 0.1143,0.1016 l 1.4732,-5.1562003 q 0.13335,-0.0381 0.31115,-0.0508 0.18415,-0.01905 0.3175,-0.01905 h 1.9811999 q 0.4572,0 0.73025,0.2921 0.27305,0.2921 0.27305,0.8064503 z m -1.7018,-7.9629003 q 0,-0.1397 0.03175,-0.29845 0.03175,-0.15875 0.08255,-0.27305 0.1143,-0.0635 0.31115,-0.10795 0.2032,-0.04445 0.38735,-0.04445 0.1778,0 0.38735,0.04445 0.2159,0.04445 0.3175,0.10795 0.0508,0.1143 0.0762,0.2794 0.03175,0.15875 0.03175,0.2921 0,0.13335 -0.03175,0.2921 -0.0254,0.15875 -0.0762,0.27305 -0.09525,0.0635 -0.31115,0.1143 -0.2159,0.04445 -0.3937,0.04445 -0.18415,0 -0.38735,-0.04445 -0.2032,-0.04445 -0.31115,-0.1143 -0.0508,-0.1143 -0.08255,-0.27305 -0.03175,-0.15875 -0.03175,-0.2921 z"
                      id="path567" />
                  </g>
                  <g
                    id="g8">
                    <path
                      d="m 14.556654,15.572576 q -0.13335,0.0254 -0.3048,0.0381 -0.1651,0.0127 -0.34925,0.0127 -0.3556,0 -0.635,-0.0508 V 6.3142757 l 0.08255,-0.08255 h 0.4953 q 0.41275,0 0.5588,0.2032 0.1524,0.19685 0.1524,0.635 z m 3.27025,-1.31445 q 0.1524,0.38735 0.2921,0.62865 0.1397,0.2413 0.3175,0.3683 -0.1397,0.1651 -0.381,0.28575 -0.2413,0.1143 -0.50165,0.1143 -0.34925,0 -0.51435,-0.18415 -0.1651,-0.18415 -0.31115,-0.55245 l -0.51435,-1.2446 q -0.19685,-0.4953 -0.4191,-0.6604 -0.22225,-0.17145 -0.6604,-0.17145 -0.18415,0 -0.37465,0.0127 -0.1905,0.0127 -0.41275,0.0381 l -0.4572,0.04445 v -0.9525 h 1.69545 q 0.69215,0 1.11125,0.28575 0.42545,0.28575 0.6985,0.9398 z m -1.1811,-2.6797 q -0.26035,0.4318 -0.64135,0.6223 -0.381,0.1905 -0.9271,0.1905 h -1.0541 v -0.5969 l 0.95885,-0.0381 q 0.10795,0 0.17145,-0.04445 0.06985,-0.04445 0.13335,-0.1397 l 1.11125,-1.7589503 q 0.15875,-0.2667 0.3429,-0.4064 0.1905,-0.14605 0.5207,-0.14605 0.19685,0 0.3556,0.00635 0.15875,0 0.33655,0.0127 l 0.0762,0.1016 z"
                      id="path569" />
                  </g>
                  <g
                    id="g11">
                    <path
                      d="m 24.376862,13.794576 q 0,0.3683 0.0762,0.69215 0.0762,0.32385 0.2794,0.508 -0.0508,0.18415 -0.1905,0.381 -0.1397,0.1905 -0.29845,0.2921 -0.6223,-0.127 -0.9017,-0.5969 -0.27305,-0.47625 -0.27305,-1.08585 V 9.3051257 q 0.127,-0.0254 0.29845,-0.0381 0.1778,-0.0127 0.3556,-0.0127 0.1778,0 0.34925,0.0127 0.17145,0.0127 0.3048,0.0381 z m -5.0038,-3.1496 q 0,-0.3302 -0.04445,-0.6223 -0.04445,-0.2984503 -0.15875,-0.5207003 0.1397,-0.12065 0.36195,-0.19685 0.22225,-0.08255 0.4572,-0.08255 0.381,0 0.53975,0.20955 0.15875,0.20955 0.15875,0.6223003 v 3.23215 q 0,0.635 0.15875,0.9271 0.1651,0.2921 0.62865,0.2921 0.32385,0 0.69215,-0.1524 0.3683,-0.15875 0.6985,-0.43815 0.3302,-0.2794 0.5334,-0.65405 v 1.25095 q -0.4191,0.4953 -1.03505,0.8382 -0.61595,0.33655 -1.3081,0.33655 -0.59055,0 -0.9652,-0.27305 -0.3683,-0.2794 -0.5461,-0.75565 -0.17145,-0.47625 -0.17145,-1.0541 z"
                      id="path571" />
                  </g>
                  <g
                    id="g14">
                    <path
                      d="m 29.18379,5.7364257 q 0.1397,-0.03175 0.3175,-0.0381 0.1778,-0.0127 0.3048,-0.0127 0.1397,0 0.29845,0.0127 0.1651,0.00635 0.3175,0.0381 V 17.356926 q -0.1524,0.0381 -0.3175,0.0508 -0.15875,0.0127 -0.29845,0.0127 -0.127,0 -0.3048,-0.0127 -0.1778,-0.0127 -0.3175,-0.0508 z"
                      id="path573" />
                  </g>
                  <g
                    id="g642">
                    <path
                      d="m 35.781418,9.2479757 q 0.4064,0 0.5715,0.24765 0.1651,0.24765 0.1651,0.6858003 v 5.39115 q -0.127,0.0254 -0.29845,0.0381 -0.17145,0.0127 -0.34925,0.0127 -0.1778,0 -0.34925,-0.0127 -0.17145,-0.0127 -0.31115,-0.0381 V 9.3368757 l 0.08255,-0.0889 z m 2.8702,2.3495003 q 0,-0.6731 -0.1905,-0.94615 -0.1905,-0.2794 -0.56515,-0.2794 -0.3175,0 -0.67945,0.2032 -0.3556,0.19685 -0.6604,0.52705 -0.3048,0.3302 -0.4826,0.7366 v -1.27635 q 0.2794,-0.3937 0.635,-0.6985003 0.36195,-0.31115 0.76835,-0.48895 0.41275,-0.18415 0.8382,-0.18415 0.55245,0 0.92075,0.2667 0.3683,0.26035 0.5461,0.7112003 0.18415,0.4445 0.18415,0.9906 v 4.41325 q -0.1397,0.0254 -0.31115,0.0381 -0.17145,0.0127 -0.3429,0.0127 -0.1778,0 -0.34925,-0.0127 -0.17145,-0.0127 -0.31115,-0.0381 z m 3.4417,-0.0127 q 0,-0.6731 -0.19685,-0.9398 -0.1905,-0.27305 -0.56515,-0.27305 -0.29845,0 -0.65405,0.19685 -0.34925,0.1905 -0.66675,0.52705 -0.3175,0.33655 -0.52705,0.7747 v -1.4605 q 0.3175,-0.3429 0.6858,-0.6159503 0.3683,-0.2794 0.78105,-0.43815 0.41275,-0.1651 0.83185,-0.1651 0.55245,0 0.9144,0.2667 0.36195,0.2667 0.5334,0.7175503 0.1778,0.4445 0.1778,1.0033 v 3.05435 q 0,0.3302 0.04445,0.62865 0.04445,0.2921 0.1651,0.51435 -0.14605,0.12065 -0.3683,0.19685 -0.2159,0.08255 -0.45085,0.08255 -0.38735,0 -0.5461,-0.20955 -0.15875,-0.20955 -0.15875,-0.6223 z"
                      id="path575" />
                  </g>
                  <g
                    id="g19">
                    <path
                      d="m 45.725505,12.854776 v -0.9525 h 3.07975 v -0.1651 q 0,-0.4445 -0.127,-0.8128 -0.12065,-0.37465 -0.40005,-0.5969 -0.27305,-0.22225 -0.73025,-0.22225 -0.6477,0 -0.97155,0.5461 -0.32385,0.5461 -0.32385,1.50495 v 0.40005 q 0,0.5969 0.12065,1.0795 0.127,0.47625 0.4445,0.75565 0.3175,0.27305 0.9017,0.27305 0.47625,0 0.92075,-0.13335 0.4445,-0.1397 0.84455,-0.34925 0.1651,0.15875 0.27305,0.40005 0.1143,0.23495 0.1397,0.43815 -0.45085,0.3302 -1.08585,0.52705 -0.62865,0.1905 -1.2954,0.1905 -0.75565,0 -1.26365,-0.2667 -0.50165,-0.2667 -0.8001,-0.73025 -0.2921,-0.4699 -0.42545,-1.06045 -0.127,-0.59055 -0.127,-1.2319 0,-0.94615 0.2921,-1.69545 0.29845,-0.7493 0.889,-1.1811003 0.59055,-0.4318 1.46685,-0.4318 0.8255,0 1.3843,0.36195 0.56515,0.36195 0.8509,0.9779003 0.28575,0.6096 0.28575,1.36525 0,0.3048 -0.0254,0.52705 -0.01905,0.2159 -0.06985,0.4826 z"
                      id="path577" />
                  </g>
                </g>
              </g>
            </g>
          </svg>